<?xml version="1.0" encoding="UTF-8"?>
<!-- Converted by misc2svg (http://www.network-science.de/tools/misc2svg/) -->
<svg xmlns="http://www.w3.org/2000/svg" xmlns:xlink="http://www.w3.org/1999/xlink" width="475pt" height="230pt" viewBox="0 0 475 230" version="1.1">
<g id="misc2svg">
<path style=" stroke:none;fill-rule:nonzero;fill:rgb(0%,0%,0%);fill-opacity:1;" d="M 37.699219 116.667969 C 37.699219 115.339844 36.585938 114.265625 35.296875 114.265625 C 33.949219 114.265625 32.855469 115.378906 32.855469 116.667969 C 32.855469 117.996094 33.949219 119.089844 35.296875 119.089844 C 36.585938 119.089844 37.699219 118.015625 37.699219 116.667969 Z M 37.699219 116.667969 "/>
<path style="fill:none;stroke-width:0.398;stroke-linecap:butt;stroke-linejoin:miter;stroke:rgb(0%,0%,0%);stroke-opacity:1;stroke-miterlimit:10;" d="M -0.000875 -0.001 L 7.471 -0.001 " transform="matrix(1.25,0,0,-1.25,154.63,174.28)"/>
<path style=" stroke:none;fill-rule:nonzero;fill:rgb(0%,0%,0%);fill-opacity:1;" d="M 156.855469 183.109375 C 156.367188 183.929688 155.878906 184.105469 155.332031 184.144531 C 155.175781 184.164062 155.058594 184.164062 155.058594 184.398438 C 155.058594 184.476562 155.136719 184.535156 155.234375 184.535156 C 155.566406 184.535156 155.957031 184.496094 156.289062 184.496094 C 156.71875 184.496094 157.148438 184.535156 157.539062 184.535156 C 157.617188 184.535156 157.773438 184.535156 157.773438 184.300781 C 157.773438 184.164062 157.675781 184.144531 157.578125 184.144531 C 157.304688 184.125 156.992188 184.027344 156.992188 183.714844 C 156.992188 183.558594 157.070312 183.421875 157.167969 183.246094 L 158.125 181.664062 L 161.25 181.664062 C 161.269531 181.917969 161.445312 183.617188 161.445312 183.734375 C 161.445312 184.105469 160.800781 184.144531 160.546875 184.144531 C 160.371094 184.144531 160.253906 184.144531 160.253906 184.398438 C 160.253906 184.535156 160.390625 184.535156 160.429688 184.535156 C 160.9375 184.535156 161.464844 184.496094 161.972656 184.496094 C 162.285156 184.496094 163.085938 184.535156 163.398438 184.535156 C 163.457031 184.535156 163.613281 184.535156 163.613281 184.28125 C 163.613281 184.144531 163.496094 184.144531 163.320312 184.144531 C 162.558594 184.144531 162.558594 184.066406 162.519531 183.695312 L 161.757812 175.921875 C 161.738281 175.667969 161.738281 175.609375 161.523438 175.609375 C 161.328125 175.609375 161.269531 175.707031 161.191406 175.824219 L 156.855469 183.109375 Z M 158.359375 181.273438 L 160.800781 177.152344 L 161.210938 181.273438 L 158.359375 181.273438 Z M 158.359375 181.273438 "/>
<path style="fill:none;stroke-width:0.3985;stroke-linecap:butt;stroke-linejoin:miter;stroke:rgb(0%,0%,0%);stroke-opacity:1;stroke-miterlimit:10;" d="M 11.463625 -5.73625 L 83.373 -41.689375 " transform="matrix(1.25,0,0,-1.25,35.28375,117.025)"/>
<path style=" stroke:none;fill-rule:nonzero;fill:rgb(0%,0%,0%);fill-opacity:1;" d="M 285.1875 214.46875 C 285.1875 213.4375 284.351562 212.597656 283.320312 212.597656 C 282.285156 212.597656 281.449219 213.4375 281.449219 214.46875 C 281.449219 215.5 282.285156 216.332031 283.320312 216.332031 C 284.351562 216.332031 285.1875 215.5 285.1875 214.46875 Z M 285.1875 214.46875 "/>
<path style="fill:none;stroke-width:0.398;stroke-linecap:butt;stroke-linejoin:miter;stroke:rgb(0%,0%,0%);stroke-opacity:1;stroke-miterlimit:10;" d="M 0.00275 0.00225 L 8.055875 0.00225 " transform="matrix(1.25,0,0,-1.25,289.8325,209.71375)"/>
<path style=" stroke:none;fill-rule:nonzero;fill:rgb(0%,0%,0%);fill-opacity:1;" d="M 291.824219 218.988281 C 291.707031 219.476562 291.667969 219.574219 290.691406 219.574219 C 290.476562 219.574219 290.359375 219.574219 290.359375 219.828125 C 290.359375 219.964844 290.476562 219.964844 290.691406 219.964844 L 295.144531 219.964844 C 297.117188 219.964844 298.582031 218.5 298.582031 217.269531 C 298.582031 216.371094 297.859375 215.648438 296.648438 215.511719 C 297.9375 215.277344 299.246094 214.359375 299.246094 213.167969 C 299.246094 212.25 298.425781 211.449219 296.941406 211.449219 L 292.742188 211.449219 C 292.507812 211.449219 292.390625 211.449219 292.390625 211.703125 C 292.390625 211.839844 292.507812 211.839844 292.742188 211.839844 C 292.761719 211.839844 292.996094 211.839844 293.210938 211.859375 C 293.425781 211.898438 293.542969 211.898438 293.542969 212.074219 C 293.542969 212.113281 293.523438 212.152344 293.503906 212.308594 L 291.824219 218.988281 Z M 293.699219 215.394531 L 294.480469 212.308594 C 294.597656 211.878906 294.617188 211.839844 295.144531 211.839844 L 296.765625 211.839844 C 297.859375 211.839844 298.113281 212.582031 298.113281 213.128906 C 298.113281 214.222656 297.039062 215.394531 295.535156 215.394531 L 293.699219 215.394531 Z M 293.152344 219.574219 C 292.976562 219.574219 292.957031 219.574219 292.878906 219.574219 C 292.742188 219.554688 292.703125 219.535156 292.703125 219.4375 C 292.703125 219.398438 292.703125 219.378906 292.78125 219.164062 L 293.640625 215.6875 L 295.984375 215.6875 C 297.175781 215.6875 297.429688 216.605469 297.429688 217.132812 C 297.429688 218.363281 296.316406 219.574219 294.832031 219.574219 L 293.152344 219.574219 Z M 293.152344 219.574219 "/>
<path style="fill:none;stroke-width:0.3985;stroke-linecap:butt;stroke-linejoin:miter;stroke:rgb(0%,0%,0%);stroke-opacity:1;stroke-miterlimit:10;" d="M 122.6605 -56.305 L 196.794875 -77.489375 " transform="matrix(1.25,0,0,-1.25,35.28375,117.025)"/>
<path style=" stroke:none;fill-rule:nonzero;fill:rgb(100%,0%,0%);fill-opacity:1;" d="M 220.535156 184.710938 C 220.574219 184.730469 220.828125 184.789062 220.867188 184.828125 L 221.257812 184.945312 C 223.699219 185.628906 224.910156 184.730469 225.222656 183.578125 C 225.710938 181.898438 224.324219 180.902344 222.800781 180.453125 L 219.285156 179.457031 C 219.050781 179.378906 218.875 179.339844 218.816406 179.554688 C 218.757812 179.769531 218.972656 179.828125 219.070312 179.847656 C 219.714844 180.042969 219.734375 180.140625 219.558594 180.726562 L 217.839844 186.722656 C 217.664062 187.328125 217.605469 187.425781 216.980469 187.25 C 216.863281 187.210938 216.648438 187.152344 216.589844 187.328125 C 216.53125 187.5625 216.707031 187.601562 216.941406 187.679688 L 220.144531 188.597656 C 220.378906 188.65625 220.535156 188.714844 220.59375 188.480469 C 220.652344 188.304688 220.457031 188.246094 220.320312 188.207031 C 219.636719 188.011719 219.617188 187.894531 219.792969 187.289062 L 220.535156 184.710938 Z M 222.664062 184.730469 C 223.191406 184.339844 223.445312 183.578125 223.582031 183.109375 C 223.777344 182.484375 223.894531 181.820312 223.699219 181.292969 C 224.324219 181.625 225.144531 182.269531 224.792969 183.460938 C 224.558594 184.320312 223.855469 184.769531 222.664062 184.730469 Z M 221.53125 181.253906 C 221.589844 181 221.707031 180.609375 222.429688 180.824219 C 223.289062 181.058594 223.582031 181.488281 223.152344 182.992188 C 222.664062 184.710938 222 184.671875 221.238281 184.457031 L 220.652344 184.28125 L 221.53125 181.253906 Z M 217.976562 187.523438 C 218.132812 187.328125 218.210938 187.054688 218.269531 186.878906 L 219.988281 180.84375 C 220.046875 180.667969 220.125 180.394531 220.085938 180.140625 L 221.433594 180.53125 C 221.21875 180.6875 221.160156 180.921875 221.101562 181.097656 L 219.363281 187.191406 C 219.324219 187.328125 219.226562 187.640625 219.265625 187.894531 L 217.976562 187.523438 Z M 217.976562 187.523438 "/>
<path style=" stroke:none;fill-rule:nonzero;fill:rgb(100%,0%,0%);fill-opacity:1;" d="M 226.828125 193.601562 C 226.847656 193.5625 226.847656 193.542969 226.691406 193.289062 C 225.617188 191.355469 225.871094 188.953125 226.398438 187.117188 C 226.984375 185.027344 228.058594 183.09375 229.953125 182.019531 C 230.167969 181.902344 230.167969 181.882812 230.1875 181.84375 C 230.207031 181.765625 230.167969 181.707031 230.089844 181.6875 C 229.972656 181.667969 228.664062 182.175781 227.53125 183.503906 C 226.515625 184.65625 226.007812 185.925781 225.714844 186.921875 C 225.441406 187.859375 225.148438 189.34375 225.421875 190.90625 C 225.734375 192.585938 226.535156 193.679688 226.652344 193.699219 C 226.730469 193.71875 226.808594 193.699219 226.828125 193.601562 Z M 226.828125 193.601562 "/>
<path style="fill:none;stroke-width:0.398;stroke-linecap:butt;stroke-linejoin:miter;stroke:rgb(100%,0%,0%);stroke-opacity:1;stroke-miterlimit:10;" d="M -0.00140995 0.000936739 L 8.056799 -0.000656109 " transform="matrix(1.203712,0.343938,0.343938,-1.203712,231.149812,181.0563)"/>
<path style=" stroke:none;fill-rule:nonzero;fill:rgb(100%,0%,0%);fill-opacity:1;" d="M 230.515625 190.539062 C 230.261719 190.96875 230.203125 191.066406 229.246094 190.792969 C 229.050781 190.734375 228.933594 190.695312 228.875 190.929688 C 228.835938 191.066406 228.953125 191.105469 229.148438 191.164062 L 233.445312 192.394531 C 235.339844 192.921875 237.175781 191.925781 237.507812 190.734375 C 237.761719 189.875 237.253906 188.996094 236.140625 188.527344 C 237.429688 188.644531 238.933594 188.117188 239.265625 186.984375 C 239.519531 186.085938 238.953125 185.109375 237.507812 184.699219 L 233.484375 183.546875 C 233.25 183.488281 233.132812 183.449219 233.054688 183.664062 C 233.035156 183.800781 233.152344 183.839844 233.367188 183.898438 C 233.386719 183.898438 233.621094 183.976562 233.796875 184.074219 C 234.03125 184.152344 234.109375 184.191406 234.070312 184.347656 C 234.070312 184.386719 234.050781 184.40625 233.972656 184.5625 L 230.515625 190.539062 Z M 233.308594 187.609375 L 234.910156 184.835938 C 235.144531 184.445312 235.183594 184.40625 235.691406 184.5625 L 237.234375 185.011719 C 238.308594 185.304688 238.347656 186.105469 238.191406 186.632812 C 237.898438 187.667969 236.53125 188.527344 235.066406 188.097656 L 233.308594 187.609375 Z M 231.609375 191.476562 C 231.453125 191.417969 231.433594 191.417969 231.355469 191.398438 C 231.257812 191.339844 231.21875 191.320312 231.238281 191.222656 C 231.257812 191.183594 231.257812 191.164062 231.394531 190.949219 L 233.152344 187.84375 L 235.4375 188.488281 C 236.570312 188.820312 236.570312 189.777344 236.414062 190.304688 C 236.082031 191.476562 234.65625 192.335938 233.25 191.945312 L 231.609375 191.476562 Z M 231.609375 191.476562 "/>
<path style=" stroke:none;fill-rule:nonzero;fill:rgb(100%,0%,0%);fill-opacity:1;" d="M 245.738281 186.667969 C 245.835938 186.53125 245.855469 186.472656 245.855469 186.472656 C 245.894531 186.316406 245.816406 186.179688 245.699219 186.140625 C 245.601562 186.121094 245.503906 186.140625 245.445312 186.179688 L 238.023438 196.433594 C 237.90625 196.589844 237.90625 196.628906 237.90625 196.648438 C 237.867188 196.785156 237.925781 196.921875 238.0625 196.960938 C 238.21875 197 238.277344 196.921875 238.414062 196.726562 L 245.738281 186.667969 Z M 245.738281 186.667969 "/>
<path style="fill:none;stroke-width:0.398;stroke-linecap:butt;stroke-linejoin:miter;stroke:rgb(100%,0%,0%);stroke-opacity:1;stroke-miterlimit:10;" d="M 0.000478557 -0.00186748 L 7.473212 0.0012455 " transform="matrix(1.203712,0.343938,0.343938,-1.203712,246.843816,185.540556)"/>
<path style=" stroke:none;fill-rule:nonzero;fill:rgb(100%,0%,0%);fill-opacity:1;" d="M 246.5625 194.652344 C 245.878906 195.296875 245.351562 195.355469 244.804688 195.238281 C 244.648438 195.21875 244.53125 195.179688 244.472656 195.394531 C 244.453125 195.472656 244.511719 195.550781 244.609375 195.589844 C 244.921875 195.667969 245.3125 195.746094 245.664062 195.84375 C 246.054688 195.941406 246.445312 196.097656 246.835938 196.214844 C 246.894531 196.234375 247.070312 196.292969 247.128906 196.058594 C 247.167969 195.941406 247.050781 195.882812 246.953125 195.84375 C 246.71875 195.765625 246.425781 195.570312 246.523438 195.277344 C 246.5625 195.121094 246.679688 195.003906 246.816406 194.886719 L 248.183594 193.597656 L 251.191406 194.457031 C 251.152344 194.730469 250.859375 196.410156 250.820312 196.527344 C 250.722656 196.878906 250.058594 196.742188 249.824219 196.683594 C 249.667969 196.625 249.53125 196.585938 249.472656 196.820312 C 249.433594 196.957031 249.589844 196.996094 249.609375 197.015625 C 250.097656 197.152344 250.625 197.25 251.113281 197.40625 C 251.425781 197.484375 252.148438 197.738281 252.460938 197.816406 C 252.539062 197.835938 252.675781 197.894531 252.753906 197.660156 C 252.773438 197.523438 252.65625 197.484375 252.5 197.445312 C 251.738281 197.230469 251.777344 197.152344 251.835938 196.78125 L 253.261719 189.085938 C 253.300781 188.832031 253.320312 188.773438 253.105469 188.714844 C 252.929688 188.65625 252.851562 188.734375 252.753906 188.832031 L 246.5625 194.652344 Z M 248.515625 193.285156 L 252.011719 190.023438 L 251.25 194.085938 L 248.515625 193.285156 Z M 248.515625 193.285156 "/>
<path style=" stroke:none;fill-rule:nonzero;fill:rgb(100%,0%,0%);fill-opacity:1;" d="M 257.351562 195.972656 C 257.625 195.035156 257.898438 193.550781 257.625 192.007812 C 257.3125 190.328125 256.511719 189.234375 256.394531 189.214844 C 256.316406 189.195312 256.257812 189.214844 256.238281 189.292969 C 256.21875 189.332031 256.21875 189.351562 256.394531 189.644531 C 257.234375 191.148438 257.351562 193.277344 256.648438 195.777344 C 256.0625 197.847656 255.007812 199.820312 253.09375 200.894531 C 252.898438 200.992188 252.898438 201.011719 252.878906 201.050781 C 252.859375 201.128906 252.878906 201.207031 252.957031 201.226562 C 253.074219 201.246094 254.402344 200.738281 255.515625 199.429688 C 256.53125 198.277344 257.058594 196.988281 257.351562 195.972656 Z M 257.351562 195.972656 "/>
<path style=" stroke:none;fill-rule:nonzero;fill:rgb(0%,0%,0%);fill-opacity:1;" d="M 285.1875 143.597656 C 285.1875 142.570312 284.351562 141.734375 283.320312 141.734375 C 282.285156 141.734375 281.449219 142.570312 281.449219 143.597656 C 281.449219 144.632812 282.285156 145.46875 283.320312 145.46875 C 284.351562 145.46875 285.1875 144.632812 285.1875 143.597656 Z M 285.1875 143.597656 "/>
<path style=" stroke:none;fill-rule:nonzero;fill:rgb(0%,0%,0%);fill-opacity:1;" d="M 292.605469 143.285156 L 292.605469 140.238281 C 292.605469 139.808594 292.625 139.730469 293.210938 139.730469 L 294.753906 139.730469 C 295.964844 139.730469 296.394531 140.785156 296.394531 141.449219 C 296.394531 142.25 295.789062 143.285156 294.402344 143.285156 L 292.605469 143.285156 Z M 295.535156 143.402344 C 296.746094 143.167969 297.605469 142.367188 297.605469 141.449219 C 297.605469 140.375 296.453125 139.339844 294.832031 139.339844 L 290.28125 139.339844 L 290.28125 139.730469 L 290.574219 139.730469 C 291.53125 139.730469 291.570312 139.867188 291.570312 140.316406 L 291.570312 146.878906 C 291.570312 147.328125 291.53125 147.464844 290.574219 147.464844 L 290.28125 147.464844 L 290.28125 147.855469 L 295.164062 147.855469 C 296.824219 147.855469 297.9375 146.742188 297.9375 145.570312 C 297.9375 144.496094 296.921875 143.558594 295.535156 143.402344 Z M 294.773438 147.464844 L 293.210938 147.464844 C 292.625 147.464844 292.605469 147.386719 292.605469 146.976562 L 292.605469 143.578125 L 294.949219 143.578125 C 296.179688 143.578125 296.707031 144.730469 296.707031 145.570312 C 296.707031 146.449219 296.042969 147.464844 294.773438 147.464844 Z M 294.773438 147.464844 "/>
<path style="fill:none;stroke-width:0.3985;stroke-linecap:butt;stroke-linejoin:miter;stroke:rgb(0%,0%,0%);stroke-opacity:1;stroke-miterlimit:10;" d="M 122.6605 -42.908125 L 196.794875 -21.726875 " transform="matrix(1.25,0,0,-1.25,35.28375,117.025)"/>
<path style=" stroke:none;fill-rule:nonzero;fill:rgb(100%,0%,0%);fill-opacity:1;" d="M 214.292969 151.503906 C 214.332031 151.484375 214.585938 151.425781 214.625 151.425781 L 215.015625 151.308594 C 217.457031 150.625 218.003906 149.21875 217.691406 148.066406 C 217.203125 146.386719 215.503906 146.25 213.980469 146.699219 L 210.464844 147.695312 C 210.230469 147.773438 210.054688 147.8125 210.113281 148.027344 C 210.171875 148.242188 210.386719 148.183594 210.484375 148.164062 C 211.128906 147.96875 211.1875 148.066406 211.363281 148.652344 L 213.082031 154.648438 C 213.257812 155.253906 213.238281 155.351562 212.613281 155.527344 C 212.496094 155.566406 212.28125 155.625 212.339844 155.800781 C 212.398438 156.035156 212.574219 155.996094 212.808594 155.917969 L 216.011719 155 C 216.246094 154.941406 216.402344 154.882812 216.34375 154.648438 C 216.285156 154.472656 216.089844 154.53125 215.953125 154.570312 C 215.269531 154.765625 215.210938 154.6875 215.035156 154.082031 L 214.292969 151.503906 Z M 216.109375 150.390625 C 216.363281 149.804688 216.1875 149.003906 216.050781 148.535156 C 215.855469 147.910156 215.621094 147.285156 215.152344 146.914062 C 215.894531 146.894531 216.910156 146.992188 217.261719 148.183594 C 217.496094 149.042969 217.144531 149.804688 216.109375 150.390625 Z M 213.296875 148.046875 C 213.238281 147.792969 213.121094 147.402344 213.84375 147.1875 C 214.703125 146.953125 215.191406 147.148438 215.621094 148.652344 C 216.109375 150.371094 215.523438 150.683594 214.761719 150.898438 L 214.175781 151.074219 L 213.296875 148.046875 Z M 213.609375 155.253906 C 213.648438 154.980469 213.570312 154.707031 213.511719 154.53125 L 211.792969 148.496094 C 211.734375 148.320312 211.65625 148.046875 211.5 147.871094 L 212.847656 147.480469 C 212.75 147.714844 212.808594 147.949219 212.867188 148.125 L 214.605469 154.21875 C 214.644531 154.355469 214.742188 154.667969 214.898438 154.882812 L 213.609375 155.253906 Z M 213.609375 155.253906 "/>
<path style=" stroke:none;fill-rule:nonzero;fill:rgb(100%,0%,0%);fill-opacity:1;" d="M 224.335938 155.738281 C 224.316406 155.699219 224.316406 155.679688 224.042969 155.542969 C 222.109375 154.46875 221.074219 152.300781 220.546875 150.464844 C 219.960938 148.375 219.824219 146.167969 220.859375 144.234375 C 220.996094 144.039062 220.996094 144.019531 220.976562 143.980469 C 220.957031 143.902344 220.878906 143.882812 220.800781 143.902344 C 220.683594 143.921875 219.84375 145.054688 219.570312 146.773438 C 219.335938 148.277344 219.570312 149.664062 219.863281 150.660156 C 220.136719 151.597656 220.664062 153.003906 221.71875 154.175781 C 222.851562 155.425781 224.121094 155.933594 224.238281 155.914062 C 224.316406 155.894531 224.355469 155.835938 224.335938 155.738281 Z M 224.335938 155.738281 "/>
<path style=" stroke:none;fill-rule:nonzero;fill:rgb(100%,0%,0%);fill-opacity:1;" d="M 225.835938 151.183594 C 225.855469 151.691406 225.875 151.789062 224.917969 152.0625 C 224.722656 152.121094 224.605469 152.160156 224.664062 152.394531 C 224.703125 152.53125 224.820312 152.492188 225.015625 152.433594 L 229.3125 151.203125 C 231.207031 150.675781 232.222656 148.859375 231.890625 147.667969 C 231.636719 146.808594 230.738281 146.320312 229.546875 146.515625 C 230.71875 145.929688 231.714844 144.660156 231.382812 143.527344 C 231.128906 142.628906 230.132812 142.121094 228.6875 142.53125 L 224.664062 143.683594 C 224.429688 143.742188 224.3125 143.78125 224.390625 143.996094 C 224.410156 144.132812 224.527344 144.09375 224.742188 144.035156 C 224.761719 144.035156 224.996094 143.957031 225.210938 143.9375 C 225.445312 143.898438 225.5625 143.898438 225.601562 144.054688 C 225.601562 144.09375 225.621094 144.113281 225.621094 144.269531 L 225.835938 151.183594 Z M 226.675781 147.199219 L 226.558594 144.035156 C 226.558594 143.566406 226.558594 143.527344 227.066406 143.371094 L 228.609375 142.921875 C 229.683594 142.628906 230.152344 143.273438 230.308594 143.800781 C 230.601562 144.835938 229.898438 146.28125 228.433594 146.710938 L 226.675781 147.199219 Z M 227.28125 151.378906 C 227.125 151.4375 227.105469 151.4375 227.027344 151.457031 C 226.890625 151.476562 226.851562 151.457031 226.832031 151.359375 C 226.8125 151.320312 226.8125 151.300781 226.792969 151.085938 L 226.675781 147.472656 L 228.960938 146.828125 C 230.09375 146.496094 230.5625 147.335938 230.71875 147.863281 C 231.050781 149.035156 230.328125 150.519531 228.921875 150.910156 L 227.28125 151.378906 Z M 227.28125 151.378906 "/>
<path style=" stroke:none;fill-rule:nonzero;fill:rgb(100%,0%,0%);fill-opacity:1;" d="M 236.722656 139.859375 C 236.742188 139.683594 236.722656 139.625 236.722656 139.625 C 236.683594 139.46875 236.527344 139.410156 236.410156 139.449219 C 236.3125 139.46875 236.253906 139.527344 236.234375 139.605469 L 235.335938 152.242188 C 235.335938 152.398438 235.335938 152.4375 235.335938 152.457031 C 235.375 152.59375 235.511719 152.691406 235.648438 152.652344 C 235.804688 152.613281 235.824219 152.496094 235.84375 152.261719 L 236.722656 139.859375 Z M 236.722656 139.859375 "/>
<path style="fill:none;stroke-width:0.398;stroke-linecap:butt;stroke-linejoin:miter;stroke:rgb(100%,0%,0%);stroke-opacity:1;stroke-miterlimit:10;" d="M -0.00000630228 0.000450413 L 7.470585 0.00119492 " transform="matrix(1.203712,-0.343938,-0.343938,-1.203712,237.066569,138.309134)"/>
<path style=" stroke:none;fill-rule:nonzero;fill:rgb(100%,0%,0%);fill-opacity:1;" d="M 241.644531 146.210938 C 241.390625 147.128906 240.980469 147.421875 240.472656 147.617188 C 240.316406 147.675781 240.199219 147.714844 240.257812 147.929688 C 240.277344 148.007812 240.375 148.046875 240.472656 148.007812 C 240.785156 147.929688 241.136719 147.773438 241.488281 147.675781 C 241.878906 147.578125 242.308594 147.5 242.699219 147.382812 C 242.757812 147.363281 242.933594 147.304688 242.875 147.070312 C 242.835938 146.953125 242.71875 146.972656 242.621094 147.011719 C 242.347656 147.050781 242.015625 147.050781 241.917969 146.757812 C 241.878906 146.601562 241.917969 146.445312 241.976562 146.25 L 242.445312 144.453125 L 245.453125 143.59375 C 245.570312 143.828125 246.214844 145.429688 246.253906 145.546875 C 246.351562 145.898438 245.726562 146.113281 245.492188 146.171875 C 245.335938 146.230469 245.199219 146.269531 245.257812 146.503906 C 245.296875 146.640625 245.453125 146.601562 245.472656 146.582031 C 245.960938 146.445312 246.449219 146.269531 246.9375 146.113281 C 247.25 146.035156 248.011719 145.859375 248.324219 145.78125 C 248.402344 145.761719 248.539062 145.703125 248.460938 145.46875 C 248.441406 145.332031 248.324219 145.371094 248.167969 145.410156 C 247.40625 145.625 247.367188 145.546875 247.230469 145.214844 L 244.398438 137.910156 C 244.28125 137.695312 244.261719 137.636719 244.046875 137.695312 C 243.871094 137.753906 243.871094 137.832031 243.8125 137.96875 L 241.644531 146.210938 Z M 242.582031 144.023438 L 243.8125 139.394531 L 245.316406 143.222656 L 242.582031 144.023438 Z M 242.582031 144.023438 "/>
<path style=" stroke:none;fill-rule:nonzero;fill:rgb(100%,0%,0%);fill-opacity:1;" d="M 251.5 141.609375 C 251.226562 140.671875 250.679688 139.265625 249.625 138.113281 C 248.492188 136.824219 247.222656 136.355469 247.105469 136.375 C 247.027344 136.394531 247.007812 136.453125 247.027344 136.53125 C 247.046875 136.570312 247.046875 136.589844 247.339844 136.765625 C 248.84375 137.605469 250.09375 139.304688 250.796875 141.804688 C 251.382812 143.875 251.539062 146.121094 250.484375 148.054688 C 250.367188 148.230469 250.367188 148.25 250.386719 148.289062 C 250.40625 148.367188 250.464844 148.40625 250.542969 148.386719 C 250.660156 148.367188 251.519531 147.234375 251.773438 145.496094 C 252.007812 143.992188 251.792969 142.625 251.5 141.609375 Z M 251.5 141.609375 "/>
<path style=" stroke:none;fill-rule:nonzero;fill:rgb(100%,0%,0%);fill-opacity:1;" d="M 90.621094 131.964844 C 90.660156 131.984375 90.914062 132.101562 90.914062 132.140625 L 91.304688 132.335938 C 93.570312 133.46875 94.917969 132.785156 95.445312 131.730469 C 96.246094 130.128906 95.054688 128.917969 93.628906 128.195312 L 90.367188 126.554688 C 90.152344 126.457031 89.976562 126.359375 89.878906 126.554688 C 89.78125 126.75 89.996094 126.867188 90.09375 126.925781 C 90.679688 127.199219 90.660156 127.296875 90.386719 127.84375 L 87.574219 133.449219 C 87.320312 133.996094 87.242188 134.074219 86.65625 133.800781 C 86.558594 133.742188 86.34375 133.625 86.246094 133.800781 C 86.148438 134.015625 86.324219 134.113281 86.539062 134.210938 L 89.527344 135.714844 C 89.722656 135.8125 89.898438 135.910156 89.996094 135.695312 C 90.09375 135.519531 89.898438 135.421875 89.78125 135.363281 C 89.136719 135.03125 89.15625 134.914062 89.410156 134.367188 L 90.621094 131.964844 Z M 92.710938 132.375 C 93.316406 132.082031 93.707031 131.398438 93.941406 130.949219 C 94.234375 130.34375 94.449219 129.738281 94.371094 129.171875 C 94.917969 129.621094 95.621094 130.382812 95.054688 131.535156 C 94.664062 132.316406 93.882812 132.609375 92.710938 132.375 Z M 92.222656 128.742188 C 92.339844 128.527344 92.535156 128.136719 93.199219 128.46875 C 94 128.878906 94.214844 129.347656 93.53125 130.753906 C 92.730469 132.355469 92.066406 132.179688 91.382812 131.828125 L 90.816406 131.554688 L 92.222656 128.742188 Z M 87.574219 134.25 C 87.769531 134.09375 87.90625 133.820312 87.984375 133.664062 L 90.796875 128.019531 C 90.875 127.882812 91.011719 127.628906 91.011719 127.375 L 92.300781 128.019531 C 92.066406 128.117188 91.949219 128.332031 91.851562 128.507812 L 89.019531 134.191406 C 88.960938 134.308594 88.804688 134.621094 88.785156 134.855469 L 87.574219 134.25 Z M 87.574219 134.25 "/>
<path style=" stroke:none;fill-rule:nonzero;fill:rgb(100%,0%,0%);fill-opacity:1;" d="M 95.171875 141.90625 C 95.191406 141.867188 95.210938 141.828125 95.09375 141.554688 C 94.410156 139.445312 95.09375 137.160156 95.953125 135.441406 C 96.910156 133.507812 98.335938 131.75 100.40625 131.046875 C 100.621094 131.007812 100.640625 130.96875 100.660156 130.929688 C 100.699219 130.851562 100.660156 130.792969 100.582031 130.773438 C 100.484375 130.714844 99.078125 130.96875 97.730469 132.0625 C 96.539062 133 95.777344 134.171875 95.308594 135.109375 C 94.859375 135.988281 94.332031 137.375 94.3125 138.976562 C 94.292969 140.675781 94.878906 141.886719 94.976562 141.945312 C 95.054688 141.964844 95.132812 141.964844 95.171875 141.90625 Z M 95.171875 141.90625 "/>
<path style="fill:none;stroke-width:0.398;stroke-linecap:butt;stroke-linejoin:miter;stroke:rgb(100%,0%,0%);stroke-opacity:1;stroke-miterlimit:10;" d="M -0.00139424 -0.000202627 L 7.469507 0.000923152 " transform="matrix(1.1225,0.5612,0.5612,-1.1225,101.759491,130.320868)"/>
<path style=" stroke:none;fill-rule:nonzero;fill:rgb(100%,0%,0%);fill-opacity:1;" d="M 99.8125 139.234375 C 98.992188 139.761719 98.464844 139.703125 97.957031 139.488281 C 97.800781 139.449219 97.703125 139.390625 97.605469 139.605469 C 97.566406 139.664062 97.605469 139.761719 97.703125 139.800781 C 97.996094 139.9375 98.367188 140.074219 98.679688 140.230469 C 99.050781 140.425781 99.402344 140.660156 99.773438 140.835938 C 99.851562 140.875 99.988281 140.933594 100.085938 140.71875 C 100.144531 140.601562 100.066406 140.542969 99.988281 140.503906 C 99.734375 140.347656 99.519531 140.152344 99.65625 139.859375 C 99.714844 139.722656 99.832031 139.625 100.027344 139.527344 L 101.570312 138.511719 L 104.382812 139.917969 C 104.285156 140.152344 103.679688 141.773438 103.621094 141.871094 C 103.464844 142.203125 102.878906 141.949219 102.644531 141.832031 C 102.488281 141.753906 102.371094 141.695312 102.253906 141.929688 C 102.195312 142.046875 102.332031 142.105469 102.371094 142.125 C 102.820312 142.359375 103.308594 142.554688 103.777344 142.789062 C 104.050781 142.925781 104.734375 143.316406 105.007812 143.453125 C 105.085938 143.492188 105.203125 143.550781 105.320312 143.316406 C 105.378906 143.199219 105.28125 143.140625 105.144531 143.082031 C 104.441406 142.730469 104.480469 142.671875 104.597656 142.320312 L 107.410156 134.996094 C 107.507812 134.742188 107.527344 134.703125 107.351562 134.605469 C 107.175781 134.527344 107.078125 134.566406 106.941406 134.664062 L 99.8125 139.234375 Z M 101.960938 138.257812 L 106.003906 135.679688 L 104.519531 139.546875 L 101.960938 138.257812 Z M 101.960938 138.257812 "/>
<path style=" stroke:none;fill-rule:nonzero;fill:rgb(100%,0%,0%);fill-opacity:1;" d="M 110.171875 142.550781 C 110.601562 141.671875 111.148438 140.265625 111.1875 138.683594 C 111.1875 136.984375 110.601562 135.773438 110.484375 135.714844 C 110.425781 135.675781 110.328125 135.695312 110.308594 135.753906 C 110.289062 135.792969 110.269531 135.832031 110.40625 136.125 C 110.933594 137.785156 110.679688 139.875 109.527344 142.21875 C 108.570312 144.113281 107.164062 145.871094 105.074219 146.613281 C 104.859375 146.652344 104.839844 146.691406 104.820312 146.730469 C 104.800781 146.769531 104.820312 146.847656 104.878906 146.886719 C 104.996094 146.945312 106.402344 146.691406 107.769531 145.597656 C 108.941406 144.660156 109.683594 143.488281 110.171875 142.550781 Z M 110.171875 142.550781 "/>
<path style=" stroke:none;fill-rule:nonzero;fill:rgb(0%,0%,0%);fill-opacity:1;" d="M 156.855469 57.847656 C 156.367188 58.667969 155.878906 58.84375 155.332031 58.882812 C 155.175781 58.902344 155.058594 58.902344 155.058594 59.136719 C 155.058594 59.214844 155.136719 59.273438 155.234375 59.273438 C 155.566406 59.273438 155.957031 59.234375 156.289062 59.234375 C 156.71875 59.234375 157.148438 59.273438 157.539062 59.273438 C 157.617188 59.273438 157.773438 59.273438 157.773438 59.039062 C 157.773438 58.902344 157.675781 58.882812 157.578125 58.882812 C 157.304688 58.863281 156.992188 58.765625 156.992188 58.453125 C 156.992188 58.296875 157.070312 58.160156 157.167969 57.984375 L 158.125 56.402344 L 161.25 56.402344 C 161.269531 56.65625 161.445312 58.355469 161.445312 58.472656 C 161.445312 58.84375 160.800781 58.882812 160.546875 58.882812 C 160.371094 58.882812 160.253906 58.882812 160.253906 59.136719 C 160.253906 59.273438 160.390625 59.273438 160.429688 59.273438 C 160.9375 59.273438 161.464844 59.234375 161.972656 59.234375 C 162.285156 59.234375 163.085938 59.273438 163.398438 59.273438 C 163.457031 59.273438 163.613281 59.273438 163.613281 59.019531 C 163.613281 58.882812 163.496094 58.882812 163.320312 58.882812 C 162.558594 58.882812 162.558594 58.804688 162.519531 58.433594 L 161.757812 50.660156 C 161.738281 50.40625 161.738281 50.347656 161.523438 50.347656 C 161.328125 50.347656 161.269531 50.445312 161.191406 50.5625 L 156.855469 57.847656 Z M 158.359375 56.011719 L 160.800781 51.890625 L 161.210938 56.011719 L 158.359375 56.011719 Z M 158.359375 56.011719 "/>
<path style="fill:none;stroke-width:0.3985;stroke-linecap:butt;stroke-linejoin:miter;stroke:rgb(0%,0%,0%);stroke-opacity:1;stroke-miterlimit:10;" d="M 11.463625 5.7325 L 85.36675 42.6825 " transform="matrix(1.25,0,0,-1.25,35.28375,117.025)"/>
<path style=" stroke:none;fill-rule:nonzero;fill:rgb(0%,0%,0%);fill-opacity:1;" d="M 285.1875 90.449219 C 285.1875 89.417969 284.351562 88.585938 283.320312 88.585938 C 282.285156 88.585938 281.449219 89.417969 281.449219 90.449219 C 281.449219 91.480469 282.285156 92.320312 283.320312 92.320312 C 284.351562 92.320312 285.1875 91.480469 285.1875 90.449219 Z M 285.1875 90.449219 "/>
<path style="fill:none;stroke-width:0.398;stroke-linecap:butt;stroke-linejoin:miter;stroke:rgb(0%,0%,0%);stroke-opacity:1;stroke-miterlimit:10;" d="M 0.00275 -0.001375 L 8.055875 -0.001375 " transform="matrix(1.25,0,0,-1.25,289.8325,85.6975)"/>
<path style=" stroke:none;fill-rule:nonzero;fill:rgb(0%,0%,0%);fill-opacity:1;" d="M 291.824219 94.976562 C 291.707031 95.464844 291.667969 95.5625 290.691406 95.5625 C 290.476562 95.5625 290.359375 95.5625 290.359375 95.816406 C 290.359375 95.953125 290.476562 95.953125 290.691406 95.953125 L 295.144531 95.953125 C 297.117188 95.953125 298.582031 94.488281 298.582031 93.257812 C 298.582031 92.359375 297.859375 91.636719 296.648438 91.5 C 297.9375 91.265625 299.246094 90.347656 299.246094 89.15625 C 299.246094 88.238281 298.425781 87.4375 296.941406 87.4375 L 292.742188 87.4375 C 292.507812 87.4375 292.390625 87.4375 292.390625 87.691406 C 292.390625 87.828125 292.507812 87.828125 292.742188 87.828125 C 292.761719 87.828125 292.996094 87.828125 293.210938 87.847656 C 293.425781 87.886719 293.542969 87.886719 293.542969 88.0625 C 293.542969 88.101562 293.523438 88.140625 293.503906 88.296875 L 291.824219 94.976562 Z M 293.699219 91.382812 L 294.480469 88.296875 C 294.597656 87.867188 294.617188 87.828125 295.144531 87.828125 L 296.765625 87.828125 C 297.859375 87.828125 298.113281 88.570312 298.113281 89.117188 C 298.113281 90.210938 297.039062 91.382812 295.535156 91.382812 L 293.699219 91.382812 Z M 293.152344 95.5625 C 292.976562 95.5625 292.957031 95.5625 292.878906 95.5625 C 292.742188 95.542969 292.703125 95.523438 292.703125 95.425781 C 292.703125 95.386719 292.703125 95.367188 292.78125 95.152344 L 293.640625 91.675781 L 295.984375 91.675781 C 297.175781 91.675781 297.429688 92.59375 297.429688 93.121094 C 297.429688 94.351562 296.316406 95.5625 294.832031 95.5625 L 293.152344 95.5625 Z M 293.152344 95.5625 "/>
<path style="fill:none;stroke-width:0.3985;stroke-linecap:butt;stroke-linejoin:miter;stroke:rgb(0%,0%,0%);stroke-opacity:1;stroke-miterlimit:10;" d="M 122.6605 42.9075 L 196.794875 21.72625 " transform="matrix(1.25,0,0,-1.25,35.28375,117.025)"/>
<path style=" stroke:none;fill-rule:nonzero;fill:rgb(100%,0%,0%);fill-opacity:1;" d="M 220.871094 60.789062 C 220.910156 60.808594 221.164062 60.867188 221.203125 60.90625 L 221.59375 61.023438 C 224.035156 61.707031 225.246094 60.808594 225.558594 59.65625 C 226.046875 57.976562 224.660156 56.980469 223.136719 56.53125 L 219.621094 55.535156 C 219.386719 55.457031 219.210938 55.417969 219.152344 55.632812 C 219.09375 55.847656 219.308594 55.90625 219.40625 55.925781 C 220.050781 56.121094 220.070312 56.21875 219.894531 56.804688 L 218.175781 62.800781 C 218 63.40625 217.941406 63.503906 217.316406 63.328125 C 217.199219 63.289062 216.984375 63.230469 216.925781 63.40625 C 216.867188 63.640625 217.042969 63.679688 217.277344 63.757812 L 220.480469 64.675781 C 220.714844 64.734375 220.871094 64.792969 220.929688 64.558594 C 220.988281 64.382812 220.792969 64.324219 220.65625 64.285156 C 219.972656 64.089844 219.953125 63.972656 220.128906 63.367188 L 220.871094 60.789062 Z M 223 60.808594 C 223.527344 60.417969 223.78125 59.65625 223.917969 59.1875 C 224.113281 58.5625 224.230469 57.898438 224.035156 57.371094 C 224.660156 57.703125 225.480469 58.347656 225.128906 59.539062 C 224.894531 60.398438 224.191406 60.847656 223 60.808594 Z M 221.867188 57.332031 C 221.925781 57.078125 222.042969 56.6875 222.765625 56.902344 C 223.625 57.136719 223.917969 57.566406 223.488281 59.070312 C 223 60.789062 222.335938 60.75 221.574219 60.535156 L 220.988281 60.359375 L 221.867188 57.332031 Z M 218.3125 63.601562 C 218.46875 63.40625 218.546875 63.132812 218.605469 62.957031 L 220.324219 56.921875 C 220.382812 56.746094 220.460938 56.472656 220.421875 56.21875 L 221.769531 56.609375 C 221.554688 56.765625 221.496094 57 221.4375 57.175781 L 219.699219 63.269531 C 219.660156 63.40625 219.5625 63.71875 219.601562 63.972656 L 218.3125 63.601562 Z M 218.3125 63.601562 "/>
<path style=" stroke:none;fill-rule:nonzero;fill:rgb(100%,0%,0%);fill-opacity:1;" d="M 227.164062 69.679688 C 227.183594 69.640625 227.183594 69.621094 227.027344 69.367188 C 225.953125 67.433594 226.207031 65.03125 226.734375 63.195312 C 227.320312 61.105469 228.394531 59.171875 230.289062 58.097656 C 230.503906 57.980469 230.503906 57.960938 230.523438 57.921875 C 230.542969 57.84375 230.503906 57.785156 230.425781 57.765625 C 230.308594 57.746094 229 58.253906 227.867188 59.582031 C 226.851562 60.734375 226.34375 62.003906 226.050781 63 C 225.777344 63.9375 225.484375 65.421875 225.757812 66.984375 C 226.070312 68.664062 226.871094 69.757812 226.988281 69.777344 C 227.066406 69.796875 227.144531 69.777344 227.164062 69.679688 Z M 227.164062 69.679688 "/>
<path style="fill:none;stroke-width:0.398;stroke-linecap:butt;stroke-linejoin:miter;stroke:rgb(100%,0%,0%);stroke-opacity:1;stroke-miterlimit:10;" d="M 0.0015732 -0.00314354 L 8.055067 0.000406806 " transform="matrix(1.203712,0.343938,0.343938,-1.203712,231.483563,57.1363)"/>
<path style=" stroke:none;fill-rule:nonzero;fill:rgb(100%,0%,0%);fill-opacity:1;" d="M 230.851562 66.617188 C 230.597656 67.046875 230.539062 67.144531 229.582031 66.871094 C 229.386719 66.8125 229.269531 66.773438 229.210938 67.007812 C 229.171875 67.144531 229.289062 67.183594 229.484375 67.242188 L 233.78125 68.472656 C 235.675781 69 237.511719 68.003906 237.84375 66.8125 C 238.097656 65.953125 237.589844 65.074219 236.476562 64.605469 C 237.765625 64.722656 239.269531 64.195312 239.601562 63.0625 C 239.855469 62.164062 239.289062 61.1875 237.84375 60.777344 L 233.820312 59.625 C 233.585938 59.566406 233.46875 59.527344 233.390625 59.742188 C 233.371094 59.878906 233.488281 59.917969 233.703125 59.976562 C 233.722656 59.976562 233.957031 60.054688 234.132812 60.152344 C 234.367188 60.230469 234.445312 60.269531 234.40625 60.425781 C 234.40625 60.464844 234.386719 60.484375 234.308594 60.640625 L 230.851562 66.617188 Z M 233.644531 63.6875 L 235.246094 60.914062 C 235.480469 60.523438 235.519531 60.484375 236.027344 60.640625 L 237.570312 61.089844 C 238.644531 61.382812 238.683594 62.183594 238.527344 62.710938 C 238.234375 63.746094 236.867188 64.605469 235.402344 64.175781 L 233.644531 63.6875 Z M 231.945312 67.554688 C 231.789062 67.496094 231.769531 67.496094 231.691406 67.476562 C 231.59375 67.417969 231.554688 67.398438 231.574219 67.300781 C 231.59375 67.261719 231.59375 67.242188 231.730469 67.027344 L 233.488281 63.921875 L 235.773438 64.566406 C 236.90625 64.898438 236.90625 65.855469 236.75 66.382812 C 236.417969 67.554688 234.992188 68.414062 233.585938 68.023438 L 231.945312 67.554688 Z M 231.945312 67.554688 "/>
<path style=" stroke:none;fill-rule:nonzero;fill:rgb(100%,0%,0%);fill-opacity:1;" d="M 246.074219 62.75 C 246.171875 62.613281 246.191406 62.554688 246.191406 62.554688 C 246.230469 62.398438 246.152344 62.261719 246.035156 62.222656 C 245.9375 62.203125 245.839844 62.222656 245.78125 62.261719 L 238.359375 72.515625 C 238.242188 72.671875 238.242188 72.710938 238.242188 72.730469 C 238.203125 72.867188 238.261719 73.003906 238.398438 73.042969 C 238.554688 73.082031 238.613281 73.003906 238.75 72.808594 L 246.074219 62.75 Z M 246.074219 62.75 "/>
<path style=" stroke:none;fill-rule:nonzero;fill:rgb(100%,0%,0%);fill-opacity:1;" d="M 246.234375 70.542969 C 245.550781 71.1875 245.023438 71.246094 244.476562 71.128906 C 244.320312 71.109375 244.203125 71.070312 244.144531 71.285156 C 244.125 71.363281 244.183594 71.441406 244.28125 71.480469 C 244.59375 71.558594 244.984375 71.636719 245.335938 71.734375 C 245.726562 71.832031 246.117188 71.988281 246.507812 72.105469 C 246.566406 72.125 246.742188 72.183594 246.800781 71.949219 C 246.839844 71.832031 246.722656 71.773438 246.625 71.734375 C 246.390625 71.65625 246.097656 71.460938 246.195312 71.167969 C 246.234375 71.011719 246.351562 70.894531 246.488281 70.777344 L 247.855469 69.488281 L 250.863281 70.347656 C 250.824219 70.621094 250.53125 72.300781 250.492188 72.417969 C 250.394531 72.769531 249.730469 72.632812 249.496094 72.574219 C 249.339844 72.515625 249.203125 72.476562 249.144531 72.710938 C 249.105469 72.847656 249.261719 72.886719 249.28125 72.90625 C 249.769531 73.042969 250.296875 73.140625 250.785156 73.296875 C 251.097656 73.375 251.820312 73.628906 252.132812 73.707031 C 252.210938 73.726562 252.347656 73.785156 252.425781 73.550781 C 252.445312 73.414062 252.328125 73.375 252.171875 73.335938 C 251.410156 73.121094 251.449219 73.042969 251.507812 72.671875 L 252.933594 64.976562 C 252.972656 64.722656 252.992188 64.664062 252.777344 64.605469 C 252.601562 64.546875 252.523438 64.625 252.425781 64.722656 L 246.234375 70.542969 Z M 248.1875 69.175781 L 251.683594 65.914062 L 250.921875 69.976562 L 248.1875 69.175781 Z M 248.1875 69.175781 "/>
<path style=" stroke:none;fill-rule:nonzero;fill:rgb(100%,0%,0%);fill-opacity:1;" d="M 257.019531 71.859375 C 257.292969 70.921875 257.566406 69.4375 257.292969 67.894531 C 256.980469 66.214844 256.179688 65.121094 256.0625 65.101562 C 255.984375 65.082031 255.925781 65.101562 255.90625 65.179688 C 255.886719 65.21875 255.886719 65.238281 256.0625 65.53125 C 256.902344 67.035156 257.019531 69.164062 256.316406 71.664062 C 255.730469 73.734375 254.675781 75.707031 252.761719 76.78125 C 252.566406 76.878906 252.566406 76.898438 252.546875 76.9375 C 252.527344 77.015625 252.546875 77.09375 252.625 77.113281 C 252.742188 77.132812 254.070312 76.625 255.183594 75.316406 C 256.199219 74.164062 256.726562 72.875 257.019531 71.859375 Z M 257.019531 71.859375 "/>
<path style=" stroke:none;fill-rule:nonzero;fill:rgb(0%,0%,0%);fill-opacity:1;" d="M 285.1875 19.585938 C 285.1875 18.550781 284.351562 17.714844 283.320312 17.714844 C 282.285156 17.714844 281.449219 18.550781 281.449219 19.585938 C 281.449219 20.617188 282.285156 21.449219 283.320312 21.449219 C 284.351562 21.449219 285.1875 20.617188 285.1875 19.585938 Z M 285.1875 19.585938 "/>
<path style=" stroke:none;fill-rule:nonzero;fill:rgb(0%,0%,0%);fill-opacity:1;" d="M 291.824219 21.722656 C 291.707031 22.210938 291.667969 22.308594 290.691406 22.308594 C 290.476562 22.308594 290.359375 22.308594 290.359375 22.5625 C 290.359375 22.699219 290.476562 22.699219 290.691406 22.699219 L 295.144531 22.699219 C 297.117188 22.699219 298.582031 21.234375 298.582031 20.003906 C 298.582031 19.105469 297.859375 18.382812 296.648438 18.246094 C 297.9375 18.011719 299.246094 17.09375 299.246094 15.902344 C 299.246094 14.984375 298.425781 14.183594 296.941406 14.183594 L 292.742188 14.183594 C 292.507812 14.183594 292.390625 14.183594 292.390625 14.4375 C 292.390625 14.574219 292.507812 14.574219 292.742188 14.574219 C 292.761719 14.574219 292.996094 14.574219 293.210938 14.59375 C 293.425781 14.632812 293.542969 14.632812 293.542969 14.808594 C 293.542969 14.847656 293.523438 14.886719 293.503906 15.042969 L 291.824219 21.722656 Z M 293.699219 18.128906 L 294.480469 15.042969 C 294.597656 14.613281 294.617188 14.574219 295.144531 14.574219 L 296.765625 14.574219 C 297.859375 14.574219 298.113281 15.316406 298.113281 15.863281 C 298.113281 16.957031 297.039062 18.128906 295.535156 18.128906 L 293.699219 18.128906 Z M 293.152344 22.308594 C 292.976562 22.308594 292.957031 22.308594 292.878906 22.308594 C 292.742188 22.289062 292.703125 22.269531 292.703125 22.171875 C 292.703125 22.132812 292.703125 22.113281 292.78125 21.898438 L 293.640625 18.421875 L 295.984375 18.421875 C 297.175781 18.421875 297.429688 19.339844 297.429688 19.867188 C 297.429688 21.097656 296.316406 22.308594 294.832031 22.308594 L 293.152344 22.308594 Z M 293.152344 22.308594 "/>
<path style=" stroke:none;fill-rule:nonzero;fill:rgb(0%,0%,0%);fill-opacity:1;" d="M 305.746094 17.992188 C 305.746094 17.621094 305.453125 17.328125 305.101562 17.328125 C 304.730469 17.328125 304.4375 17.621094 304.4375 17.992188 C 304.4375 18.34375 304.730469 18.65625 305.101562 18.65625 C 305.453125 18.65625 305.746094 18.34375 305.746094 17.992188 Z M 305.746094 22.035156 C 305.746094 21.683594 305.453125 21.371094 305.101562 21.371094 C 304.730469 21.371094 304.4375 21.683594 304.4375 22.035156 C 304.4375 22.40625 304.730469 22.699219 305.101562 22.699219 C 305.453125 22.699219 305.746094 22.40625 305.746094 22.035156 Z M 305.746094 22.035156 "/>
<path style=" stroke:none;fill-rule:nonzero;fill:rgb(100%,0%,0%);fill-opacity:1;" d="M 317 18.851562 C 317.058594 18.851562 317.3125 18.851562 317.332031 18.871094 L 317.761719 18.871094 C 320.300781 18.871094 321.199219 17.699219 321.199219 16.507812 C 321.199219 14.730469 319.597656 14.164062 317.996094 14.164062 L 314.363281 14.164062 C 314.128906 14.164062 313.933594 14.164062 313.933594 14.378906 C 313.933594 14.59375 314.167969 14.59375 314.265625 14.59375 C 314.929688 14.59375 314.96875 14.691406 314.96875 15.316406 L 314.96875 21.546875 C 314.96875 22.171875 314.929688 22.269531 314.285156 22.269531 C 314.167969 22.269531 313.933594 22.269531 313.933594 22.484375 C 313.933594 22.699219 314.128906 22.699219 314.363281 22.699219 L 317.703125 22.699219 C 317.917969 22.699219 318.113281 22.699219 318.113281 22.484375 C 318.113281 22.269531 317.898438 22.269531 317.761719 22.269531 C 317.058594 22.269531 317 22.171875 317 21.546875 L 317 18.851562 Z M 319.050781 18.304688 C 319.460938 17.777344 319.5 16.996094 319.5 16.488281 C 319.5 15.824219 319.441406 15.179688 319.109375 14.710938 C 319.792969 14.867188 320.769531 15.238281 320.769531 16.507812 C 320.769531 17.386719 320.203125 18.011719 319.050781 18.304688 Z M 317 15.277344 C 317 15.023438 317 14.59375 317.742188 14.59375 C 318.640625 14.59375 319.050781 14.945312 319.050781 16.488281 C 319.050781 18.285156 318.40625 18.421875 317.625 18.421875 L 317 18.421875 L 317 15.277344 Z M 315.300781 22.269531 C 315.398438 22.035156 315.398438 21.742188 315.398438 21.585938 L 315.398438 15.277344 C 315.398438 15.121094 315.398438 14.828125 315.300781 14.59375 L 316.726562 14.59375 C 316.570312 14.808594 316.570312 15.042969 316.570312 15.238281 L 316.570312 21.585938 C 316.570312 21.703125 316.570312 22.035156 316.667969 22.269531 L 315.300781 22.269531 Z M 315.300781 22.269531 "/>
<path style=" stroke:none;fill-rule:nonzero;fill:rgb(100%,0%,0%);fill-opacity:1;" d="M 325.472656 25.6875 C 325.472656 25.648438 325.472656 25.628906 325.257812 25.414062 C 323.714844 23.851562 323.304688 21.488281 323.304688 19.574219 C 323.304688 17.40625 323.773438 15.238281 325.316406 13.695312 C 325.472656 13.539062 325.472656 13.519531 325.472656 13.480469 C 325.472656 13.382812 325.433594 13.34375 325.355469 13.34375 C 325.21875 13.34375 324.105469 14.203125 323.363281 15.785156 C 322.738281 17.152344 322.582031 18.539062 322.582031 19.574219 C 322.582031 20.550781 322.71875 22.054688 323.402344 23.480469 C 324.164062 25.003906 325.21875 25.824219 325.355469 25.824219 C 325.433594 25.824219 325.472656 25.785156 325.472656 25.6875 Z M 325.472656 25.6875 "/>
<path style=" stroke:none;fill-rule:nonzero;fill:rgb(100%,0%,0%);fill-opacity:1;" d="M 328.417969 21.273438 C 327.929688 22.09375 327.441406 22.269531 326.894531 22.308594 C 326.738281 22.328125 326.621094 22.328125 326.621094 22.5625 C 326.621094 22.640625 326.699219 22.699219 326.796875 22.699219 C 327.128906 22.699219 327.519531 22.660156 327.851562 22.660156 C 328.28125 22.660156 328.710938 22.699219 329.101562 22.699219 C 329.179688 22.699219 329.335938 22.699219 329.335938 22.464844 C 329.335938 22.328125 329.238281 22.308594 329.140625 22.308594 C 328.867188 22.289062 328.554688 22.191406 328.554688 21.878906 C 328.554688 21.722656 328.632812 21.585938 328.730469 21.410156 L 329.6875 19.828125 L 332.8125 19.828125 C 332.832031 20.082031 333.007812 21.78125 333.007812 21.898438 C 333.007812 22.269531 332.363281 22.308594 332.109375 22.308594 C 331.933594 22.308594 331.816406 22.308594 331.816406 22.5625 C 331.816406 22.699219 331.953125 22.699219 331.992188 22.699219 C 332.5 22.699219 333.027344 22.660156 333.535156 22.660156 C 333.847656 22.660156 334.648438 22.699219 334.960938 22.699219 C 335.019531 22.699219 335.175781 22.699219 335.175781 22.445312 C 335.175781 22.308594 335.058594 22.308594 334.882812 22.308594 C 334.121094 22.308594 334.121094 22.230469 334.082031 21.859375 L 333.320312 14.085938 C 333.300781 13.832031 333.300781 13.773438 333.085938 13.773438 C 332.890625 13.773438 332.832031 13.871094 332.753906 13.988281 L 328.417969 21.273438 Z M 329.921875 19.4375 L 332.363281 15.316406 L 332.773438 19.4375 L 329.921875 19.4375 Z M 329.921875 19.4375 "/>
<path style=" stroke:none;fill-rule:nonzero;fill:rgb(100%,0%,0%);fill-opacity:1;" d="M 345.917969 17.972656 C 345.917969 16.078125 344.003906 15.238281 342.441406 15.238281 C 340.839844 15.238281 338.984375 16.117188 338.984375 17.953125 L 338.984375 22.523438 C 338.984375 22.757812 338.984375 22.972656 339.238281 22.972656 C 339.492188 22.972656 339.492188 22.757812 339.492188 22.523438 L 339.492188 18.011719 C 339.492188 16.136719 341.523438 15.746094 342.441406 15.746094 C 343.007812 15.746094 343.789062 15.863281 344.453125 16.273438 C 345.410156 16.898438 345.410156 17.699219 345.410156 18.03125 L 345.410156 22.523438 C 345.410156 22.757812 345.410156 22.972656 345.664062 22.972656 C 345.917969 22.972656 345.917969 22.757812 345.917969 22.523438 L 345.917969 17.972656 Z M 345.917969 17.972656 "/>
<path style=" stroke:none;fill-rule:nonzero;fill:rgb(100%,0%,0%);fill-opacity:1;" d="M 351.363281 21.722656 C 351.246094 22.210938 351.207031 22.308594 350.230469 22.308594 C 350.015625 22.308594 349.898438 22.308594 349.898438 22.5625 C 349.898438 22.699219 350.015625 22.699219 350.230469 22.699219 L 354.683594 22.699219 C 356.65625 22.699219 358.121094 21.234375 358.121094 20.003906 C 358.121094 19.105469 357.398438 18.382812 356.1875 18.246094 C 357.476562 18.011719 358.785156 17.09375 358.785156 15.902344 C 358.785156 14.984375 357.964844 14.183594 356.480469 14.183594 L 352.28125 14.183594 C 352.046875 14.183594 351.929688 14.183594 351.929688 14.4375 C 351.929688 14.574219 352.046875 14.574219 352.28125 14.574219 C 352.300781 14.574219 352.535156 14.574219 352.75 14.59375 C 352.964844 14.632812 353.082031 14.632812 353.082031 14.808594 C 353.082031 14.847656 353.0625 14.886719 353.042969 15.042969 L 351.363281 21.722656 Z M 353.238281 18.128906 L 354.019531 15.042969 C 354.136719 14.613281 354.15625 14.574219 354.683594 14.574219 L 356.304688 14.574219 C 357.398438 14.574219 357.652344 15.316406 357.652344 15.863281 C 357.652344 16.957031 356.578125 18.128906 355.074219 18.128906 L 353.238281 18.128906 Z M 352.691406 22.308594 C 352.515625 22.308594 352.496094 22.308594 352.417969 22.308594 C 352.28125 22.289062 352.242188 22.269531 352.242188 22.171875 C 352.242188 22.132812 352.242188 22.113281 352.320312 21.898438 L 353.179688 18.421875 L 355.523438 18.421875 C 356.714844 18.421875 356.96875 19.339844 356.96875 19.867188 C 356.96875 21.097656 355.855469 22.308594 354.371094 22.308594 L 352.691406 22.308594 Z M 352.691406 22.308594 "/>
<path style=" stroke:none;fill-rule:nonzero;fill:rgb(100%,0%,0%);fill-opacity:1;" d="M 363.035156 19.574219 C 363.035156 18.617188 362.898438 17.113281 362.214844 15.6875 C 361.472656 14.164062 360.398438 13.34375 360.28125 13.34375 C 360.203125 13.34375 360.144531 13.402344 360.144531 13.480469 C 360.144531 13.519531 360.144531 13.539062 360.378906 13.773438 C 361.609375 15.003906 362.3125 16.976562 362.3125 19.574219 C 362.3125 21.722656 361.863281 23.910156 360.320312 25.472656 C 360.144531 25.628906 360.144531 25.648438 360.144531 25.6875 C 360.144531 25.765625 360.203125 25.824219 360.28125 25.824219 C 360.398438 25.824219 361.53125 24.964844 362.253906 23.382812 C 362.898438 22.015625 363.035156 20.628906 363.035156 19.574219 Z M 363.035156 19.574219 "/>
<path style=" stroke:none;fill-rule:nonzero;fill:rgb(100%,0%,0%);fill-opacity:1;" d="M 376.300781 18.617188 C 376.496094 18.617188 376.730469 18.617188 376.730469 18.382812 C 376.730469 18.128906 376.496094 18.128906 376.320312 18.128906 L 368.859375 18.128906 C 368.683594 18.128906 368.449219 18.128906 368.449219 18.382812 C 368.449219 18.617188 368.683594 18.617188 368.859375 18.617188 L 376.300781 18.617188 Z M 376.320312 21.039062 C 376.496094 21.039062 376.730469 21.039062 376.730469 20.785156 C 376.730469 20.550781 376.496094 20.550781 376.300781 20.550781 L 368.859375 20.550781 C 368.683594 20.550781 368.449219 20.550781 368.449219 20.785156 C 368.449219 21.039062 368.683594 21.039062 368.859375 21.039062 L 376.320312 21.039062 Z M 376.320312 21.039062 "/>
<path style=" stroke:none;fill-rule:nonzero;fill:rgb(100%,0%,0%);fill-opacity:1;" d="M 384.148438 18.851562 C 384.207031 18.851562 384.460938 18.851562 384.480469 18.871094 L 384.910156 18.871094 C 387.449219 18.871094 388.347656 17.699219 388.347656 16.507812 C 388.347656 14.730469 386.746094 14.164062 385.144531 14.164062 L 381.511719 14.164062 C 381.277344 14.164062 381.082031 14.164062 381.082031 14.378906 C 381.082031 14.59375 381.316406 14.59375 381.414062 14.59375 C 382.078125 14.59375 382.117188 14.691406 382.117188 15.316406 L 382.117188 21.546875 C 382.117188 22.171875 382.078125 22.269531 381.433594 22.269531 C 381.316406 22.269531 381.082031 22.269531 381.082031 22.484375 C 381.082031 22.699219 381.277344 22.699219 381.511719 22.699219 L 384.851562 22.699219 C 385.066406 22.699219 385.261719 22.699219 385.261719 22.484375 C 385.261719 22.269531 385.046875 22.269531 384.910156 22.269531 C 384.207031 22.269531 384.148438 22.171875 384.148438 21.546875 L 384.148438 18.851562 Z M 386.199219 18.304688 C 386.609375 17.777344 386.648438 16.996094 386.648438 16.488281 C 386.648438 15.824219 386.589844 15.179688 386.257812 14.710938 C 386.941406 14.867188 387.917969 15.238281 387.917969 16.507812 C 387.917969 17.386719 387.351562 18.011719 386.199219 18.304688 Z M 384.148438 15.277344 C 384.148438 15.023438 384.148438 14.59375 384.890625 14.59375 C 385.789062 14.59375 386.199219 14.945312 386.199219 16.488281 C 386.199219 18.285156 385.554688 18.421875 384.773438 18.421875 L 384.148438 18.421875 L 384.148438 15.277344 Z M 382.449219 22.269531 C 382.546875 22.035156 382.546875 21.742188 382.546875 21.585938 L 382.546875 15.277344 C 382.546875 15.121094 382.546875 14.828125 382.449219 14.59375 L 383.875 14.59375 C 383.71875 14.808594 383.71875 15.042969 383.71875 15.238281 L 383.71875 21.585938 C 383.71875 21.703125 383.71875 22.035156 383.816406 22.269531 L 382.449219 22.269531 Z M 382.449219 22.269531 "/>
<path style=" stroke:none;fill-rule:nonzero;fill:rgb(100%,0%,0%);fill-opacity:1;" d="M 392.621094 25.6875 C 392.621094 25.648438 392.621094 25.628906 392.40625 25.414062 C 390.863281 23.851562 390.453125 21.488281 390.453125 19.574219 C 390.453125 17.40625 390.921875 15.238281 392.464844 13.695312 C 392.621094 13.539062 392.621094 13.519531 392.621094 13.480469 C 392.621094 13.382812 392.582031 13.34375 392.503906 13.34375 C 392.367188 13.34375 391.253906 14.203125 390.511719 15.785156 C 389.886719 17.152344 389.730469 18.539062 389.730469 19.574219 C 389.730469 20.550781 389.867188 22.054688 390.550781 23.480469 C 391.3125 25.003906 392.367188 25.824219 392.503906 25.824219 C 392.582031 25.824219 392.621094 25.785156 392.621094 25.6875 Z M 392.621094 25.6875 "/>
<path style=" stroke:none;fill-rule:nonzero;fill:rgb(100%,0%,0%);fill-opacity:1;" d="M 395.566406 21.273438 C 395.078125 22.09375 394.589844 22.269531 394.042969 22.308594 C 393.886719 22.328125 393.769531 22.328125 393.769531 22.5625 C 393.769531 22.640625 393.847656 22.699219 393.945312 22.699219 C 394.277344 22.699219 394.667969 22.660156 395 22.660156 C 395.429688 22.660156 395.859375 22.699219 396.25 22.699219 C 396.328125 22.699219 396.484375 22.699219 396.484375 22.464844 C 396.484375 22.328125 396.386719 22.308594 396.289062 22.308594 C 396.015625 22.289062 395.703125 22.191406 395.703125 21.878906 C 395.703125 21.722656 395.78125 21.585938 395.878906 21.410156 L 396.835938 19.828125 L 399.960938 19.828125 C 399.980469 20.082031 400.15625 21.78125 400.15625 21.898438 C 400.15625 22.269531 399.511719 22.308594 399.257812 22.308594 C 399.082031 22.308594 398.964844 22.308594 398.964844 22.5625 C 398.964844 22.699219 399.101562 22.699219 399.140625 22.699219 C 399.648438 22.699219 400.175781 22.660156 400.683594 22.660156 C 400.996094 22.660156 401.796875 22.699219 402.109375 22.699219 C 402.167969 22.699219 402.324219 22.699219 402.324219 22.445312 C 402.324219 22.308594 402.207031 22.308594 402.03125 22.308594 C 401.269531 22.308594 401.269531 22.230469 401.230469 21.859375 L 400.46875 14.085938 C 400.449219 13.832031 400.449219 13.773438 400.234375 13.773438 C 400.039062 13.773438 399.980469 13.871094 399.902344 13.988281 L 395.566406 21.273438 Z M 397.070312 19.4375 L 399.511719 15.316406 L 399.921875 19.4375 L 397.070312 19.4375 Z M 397.070312 19.4375 "/>
<path style=" stroke:none;fill-rule:nonzero;fill:rgb(100%,0%,0%);fill-opacity:1;" d="M 406.273438 19.574219 C 406.273438 18.617188 406.136719 17.113281 405.453125 15.6875 C 404.710938 14.164062 403.636719 13.34375 403.519531 13.34375 C 403.441406 13.34375 403.382812 13.402344 403.382812 13.480469 C 403.382812 13.519531 403.382812 13.539062 403.617188 13.773438 C 404.847656 15.003906 405.550781 16.976562 405.550781 19.574219 C 405.550781 21.722656 405.101562 23.910156 403.558594 25.472656 C 403.382812 25.628906 403.382812 25.648438 403.382812 25.6875 C 403.382812 25.765625 403.441406 25.824219 403.519531 25.824219 C 403.636719 25.824219 404.769531 24.964844 405.492188 23.382812 C 406.136719 22.015625 406.273438 20.628906 406.273438 19.574219 Z M 406.273438 19.574219 "/>
<path style=" stroke:none;fill-rule:nonzero;fill:rgb(100%,0%,0%);fill-opacity:1;" d="M 415.136719 19.242188 L 412.65625 16.761719 C 412.5 16.605469 412.480469 16.585938 412.382812 16.585938 C 412.246094 16.585938 412.128906 16.683594 412.128906 16.839844 C 412.128906 16.917969 412.148438 16.9375 412.285156 17.074219 L 414.785156 19.574219 L 412.285156 22.09375 C 412.148438 22.230469 412.128906 22.25 412.128906 22.328125 C 412.128906 22.484375 412.246094 22.582031 412.382812 22.582031 C 412.480469 22.582031 412.5 22.5625 412.65625 22.40625 L 415.136719 19.925781 L 417.714844 22.503906 C 417.734375 22.523438 417.8125 22.582031 417.890625 22.582031 C 418.046875 22.582031 418.144531 22.484375 418.144531 22.328125 C 418.144531 22.308594 418.144531 22.269531 418.105469 22.191406 C 418.085938 22.171875 416.113281 20.21875 415.488281 19.574219 L 417.773438 17.308594 C 417.832031 17.230469 418.027344 17.074219 418.085938 16.996094 C 418.085938 16.976562 418.144531 16.917969 418.144531 16.839844 C 418.144531 16.683594 418.046875 16.585938 417.890625 16.585938 C 417.792969 16.585938 417.753906 16.625 417.617188 16.761719 L 415.136719 19.242188 Z M 415.136719 19.242188 "/>
<path style=" stroke:none;fill-rule:nonzero;fill:rgb(100%,0%,0%);fill-opacity:1;" d="M 426.007812 18.851562 C 426.066406 18.851562 426.320312 18.851562 426.339844 18.871094 L 426.769531 18.871094 C 429.308594 18.871094 430.207031 17.699219 430.207031 16.507812 C 430.207031 14.730469 428.605469 14.164062 427.003906 14.164062 L 423.371094 14.164062 C 423.136719 14.164062 422.941406 14.164062 422.941406 14.378906 C 422.941406 14.59375 423.175781 14.59375 423.273438 14.59375 C 423.9375 14.59375 423.976562 14.691406 423.976562 15.316406 L 423.976562 21.546875 C 423.976562 22.171875 423.9375 22.269531 423.292969 22.269531 C 423.175781 22.269531 422.941406 22.269531 422.941406 22.484375 C 422.941406 22.699219 423.136719 22.699219 423.371094 22.699219 L 426.710938 22.699219 C 426.925781 22.699219 427.121094 22.699219 427.121094 22.484375 C 427.121094 22.269531 426.90625 22.269531 426.769531 22.269531 C 426.066406 22.269531 426.007812 22.171875 426.007812 21.546875 L 426.007812 18.851562 Z M 428.058594 18.304688 C 428.46875 17.777344 428.507812 16.996094 428.507812 16.488281 C 428.507812 15.824219 428.449219 15.179688 428.117188 14.710938 C 428.800781 14.867188 429.777344 15.238281 429.777344 16.507812 C 429.777344 17.386719 429.210938 18.011719 428.058594 18.304688 Z M 426.007812 15.277344 C 426.007812 15.023438 426.007812 14.59375 426.75 14.59375 C 427.648438 14.59375 428.058594 14.945312 428.058594 16.488281 C 428.058594 18.285156 427.414062 18.421875 426.632812 18.421875 L 426.007812 18.421875 L 426.007812 15.277344 Z M 424.308594 22.269531 C 424.40625 22.035156 424.40625 21.742188 424.40625 21.585938 L 424.40625 15.277344 C 424.40625 15.121094 424.40625 14.828125 424.308594 14.59375 L 425.734375 14.59375 C 425.578125 14.808594 425.578125 15.042969 425.578125 15.238281 L 425.578125 21.585938 C 425.578125 21.703125 425.578125 22.035156 425.675781 22.269531 L 424.308594 22.269531 Z M 424.308594 22.269531 "/>
<path style=" stroke:none;fill-rule:nonzero;fill:rgb(100%,0%,0%);fill-opacity:1;" d="M 434.476562 25.6875 C 434.476562 25.648438 434.476562 25.628906 434.261719 25.414062 C 432.71875 23.851562 432.308594 21.488281 432.308594 19.574219 C 432.308594 17.40625 432.777344 15.238281 434.320312 13.695312 C 434.476562 13.539062 434.476562 13.519531 434.476562 13.480469 C 434.476562 13.382812 434.4375 13.34375 434.359375 13.34375 C 434.222656 13.34375 433.109375 14.203125 432.367188 15.785156 C 431.742188 17.152344 431.585938 18.539062 431.585938 19.574219 C 431.585938 20.550781 431.722656 22.054688 432.40625 23.480469 C 433.167969 25.003906 434.222656 25.824219 434.359375 25.824219 C 434.4375 25.824219 434.476562 25.785156 434.476562 25.6875 Z M 434.476562 25.6875 "/>
<path style=" stroke:none;fill-rule:nonzero;fill:rgb(100%,0%,0%);fill-opacity:1;" d="M 437.191406 21.722656 C 437.074219 22.210938 437.035156 22.308594 436.058594 22.308594 C 435.84375 22.308594 435.726562 22.308594 435.726562 22.5625 C 435.726562 22.699219 435.84375 22.699219 436.058594 22.699219 L 440.511719 22.699219 C 442.484375 22.699219 443.949219 21.234375 443.949219 20.003906 C 443.949219 19.105469 443.226562 18.382812 442.015625 18.246094 C 443.304688 18.011719 444.613281 17.09375 444.613281 15.902344 C 444.613281 14.984375 443.792969 14.183594 442.308594 14.183594 L 438.109375 14.183594 C 437.875 14.183594 437.757812 14.183594 437.757812 14.4375 C 437.757812 14.574219 437.875 14.574219 438.109375 14.574219 C 438.128906 14.574219 438.363281 14.574219 438.578125 14.59375 C 438.792969 14.632812 438.910156 14.632812 438.910156 14.808594 C 438.910156 14.847656 438.890625 14.886719 438.871094 15.042969 L 437.191406 21.722656 Z M 439.066406 18.128906 L 439.847656 15.042969 C 439.964844 14.613281 439.984375 14.574219 440.511719 14.574219 L 442.132812 14.574219 C 443.226562 14.574219 443.480469 15.316406 443.480469 15.863281 C 443.480469 16.957031 442.40625 18.128906 440.902344 18.128906 L 439.066406 18.128906 Z M 438.519531 22.308594 C 438.34375 22.308594 438.324219 22.308594 438.246094 22.308594 C 438.109375 22.289062 438.070312 22.269531 438.070312 22.171875 C 438.070312 22.132812 438.070312 22.113281 438.148438 21.898438 L 439.007812 18.421875 L 441.351562 18.421875 C 442.542969 18.421875 442.796875 19.339844 442.796875 19.867188 C 442.796875 21.097656 441.683594 22.308594 440.199219 22.308594 L 438.519531 22.308594 Z M 438.519531 22.308594 "/>
<path style=" stroke:none;fill-rule:nonzero;fill:rgb(100%,0%,0%);fill-opacity:1;" d="M 450.734375 13.832031 C 450.792969 13.65625 450.792969 13.617188 450.792969 13.597656 C 450.792969 13.460938 450.695312 13.34375 450.558594 13.34375 C 450.460938 13.34375 450.382812 13.382812 450.34375 13.460938 L 446.007812 25.335938 C 445.949219 25.511719 445.949219 25.550781 445.949219 25.570312 C 445.949219 25.707031 446.066406 25.824219 446.203125 25.824219 C 446.359375 25.824219 446.398438 25.726562 446.476562 25.511719 L 450.734375 13.832031 Z M 450.734375 13.832031 "/>
<path style=" stroke:none;fill-rule:nonzero;fill:rgb(100%,0%,0%);fill-opacity:1;" d="M 453.035156 21.273438 C 452.546875 22.09375 452.058594 22.269531 451.511719 22.308594 C 451.355469 22.328125 451.238281 22.328125 451.238281 22.5625 C 451.238281 22.640625 451.316406 22.699219 451.414062 22.699219 C 451.746094 22.699219 452.136719 22.660156 452.46875 22.660156 C 452.898438 22.660156 453.328125 22.699219 453.71875 22.699219 C 453.796875 22.699219 453.953125 22.699219 453.953125 22.464844 C 453.953125 22.328125 453.855469 22.308594 453.757812 22.308594 C 453.484375 22.289062 453.171875 22.191406 453.171875 21.878906 C 453.171875 21.722656 453.25 21.585938 453.347656 21.410156 L 454.304688 19.828125 L 457.429688 19.828125 C 457.449219 20.082031 457.625 21.78125 457.625 21.898438 C 457.625 22.269531 456.980469 22.308594 456.726562 22.308594 C 456.550781 22.308594 456.433594 22.308594 456.433594 22.5625 C 456.433594 22.699219 456.570312 22.699219 456.609375 22.699219 C 457.117188 22.699219 457.644531 22.660156 458.152344 22.660156 C 458.464844 22.660156 459.265625 22.699219 459.578125 22.699219 C 459.636719 22.699219 459.792969 22.699219 459.792969 22.445312 C 459.792969 22.308594 459.675781 22.308594 459.5 22.308594 C 458.738281 22.308594 458.738281 22.230469 458.699219 21.859375 L 457.9375 14.085938 C 457.917969 13.832031 457.917969 13.773438 457.703125 13.773438 C 457.507812 13.773438 457.449219 13.871094 457.371094 13.988281 L 453.035156 21.273438 Z M 454.539062 19.4375 L 456.980469 15.316406 L 457.390625 19.4375 L 454.539062 19.4375 Z M 454.539062 19.4375 "/>
<path style=" stroke:none;fill-rule:nonzero;fill:rgb(100%,0%,0%);fill-opacity:1;" d="M 463.738281 19.574219 C 463.738281 18.617188 463.601562 17.113281 462.917969 15.6875 C 462.175781 14.164062 461.101562 13.34375 460.984375 13.34375 C 460.90625 13.34375 460.847656 13.402344 460.847656 13.480469 C 460.847656 13.519531 460.847656 13.539062 461.082031 13.773438 C 462.3125 15.003906 463.015625 16.976562 463.015625 19.574219 C 463.015625 21.722656 462.566406 23.910156 461.023438 25.472656 C 460.847656 25.628906 460.847656 25.648438 460.847656 25.6875 C 460.847656 25.765625 460.90625 25.824219 460.984375 25.824219 C 461.101562 25.824219 462.234375 24.964844 462.957031 23.382812 C 463.601562 22.015625 463.738281 20.628906 463.738281 19.574219 Z M 463.738281 19.574219 "/>
<path style="fill:none;stroke-width:0.3985;stroke-linecap:butt;stroke-linejoin:miter;stroke:rgb(0%,0%,0%);stroke-opacity:1;stroke-miterlimit:10;" d="M 122.6605 56.304375 L 196.794875 77.485625 " transform="matrix(1.25,0,0,-1.25,35.28375,117.025)"/>
<path style=" stroke:none;fill-rule:nonzero;fill:rgb(100%,0%,0%);fill-opacity:1;" d="M 214.625 27.394531 C 214.664062 27.375 214.917969 27.316406 214.957031 27.316406 L 215.347656 27.199219 C 217.789062 26.515625 218.335938 25.109375 218.023438 23.957031 C 217.535156 22.277344 215.835938 22.140625 214.3125 22.589844 L 210.796875 23.585938 C 210.5625 23.664062 210.386719 23.703125 210.445312 23.917969 C 210.503906 24.132812 210.71875 24.074219 210.816406 24.054688 C 211.460938 23.859375 211.519531 23.957031 211.695312 24.542969 L 213.414062 30.539062 C 213.589844 31.144531 213.570312 31.242188 212.945312 31.417969 C 212.828125 31.457031 212.613281 31.515625 212.671875 31.691406 C 212.730469 31.925781 212.90625 31.886719 213.140625 31.808594 L 216.34375 30.890625 C 216.578125 30.832031 216.734375 30.773438 216.675781 30.539062 C 216.617188 30.363281 216.421875 30.421875 216.285156 30.460938 C 215.601562 30.65625 215.542969 30.578125 215.367188 29.972656 L 214.625 27.394531 Z M 216.441406 26.28125 C 216.695312 25.695312 216.519531 24.894531 216.382812 24.425781 C 216.1875 23.800781 215.953125 23.175781 215.484375 22.804688 C 216.226562 22.785156 217.242188 22.882812 217.59375 24.074219 C 217.828125 24.933594 217.476562 25.695312 216.441406 26.28125 Z M 213.628906 23.9375 C 213.570312 23.683594 213.453125 23.292969 214.175781 23.078125 C 215.035156 22.84375 215.523438 23.039062 215.953125 24.542969 C 216.441406 26.261719 215.855469 26.574219 215.09375 26.789062 L 214.507812 26.964844 L 213.628906 23.9375 Z M 213.941406 31.144531 C 213.980469 30.871094 213.902344 30.597656 213.84375 30.421875 L 212.125 24.386719 C 212.066406 24.210938 211.988281 23.9375 211.832031 23.761719 L 213.179688 23.371094 C 213.082031 23.605469 213.140625 23.839844 213.199219 24.015625 L 214.9375 30.109375 C 214.976562 30.246094 215.074219 30.558594 215.230469 30.773438 L 213.941406 31.144531 Z M 213.941406 31.144531 "/>
<path style=" stroke:none;fill-rule:nonzero;fill:rgb(100%,0%,0%);fill-opacity:1;" d="M 224.667969 31.625 C 224.648438 31.585938 224.648438 31.566406 224.375 31.429688 C 222.441406 30.355469 221.40625 28.1875 220.878906 26.351562 C 220.292969 24.261719 220.15625 22.054688 221.191406 20.121094 C 221.328125 19.925781 221.328125 19.90625 221.308594 19.867188 C 221.289062 19.789062 221.210938 19.769531 221.132812 19.789062 C 221.015625 19.808594 220.175781 20.941406 219.902344 22.660156 C 219.667969 24.164062 219.902344 25.550781 220.195312 26.546875 C 220.46875 27.484375 220.996094 28.890625 222.050781 30.0625 C 223.183594 31.3125 224.453125 31.820312 224.570312 31.800781 C 224.648438 31.78125 224.6875 31.722656 224.667969 31.625 Z M 224.667969 31.625 "/>
<path style=" stroke:none;fill-rule:nonzero;fill:rgb(100%,0%,0%);fill-opacity:1;" d="M 226.167969 27.070312 C 226.1875 27.578125 226.207031 27.675781 225.25 27.949219 C 225.054688 28.007812 224.9375 28.046875 224.996094 28.28125 C 225.035156 28.417969 225.152344 28.378906 225.347656 28.320312 L 229.644531 27.089844 C 231.539062 26.5625 232.554688 24.746094 232.222656 23.554688 C 231.96875 22.695312 231.070312 22.207031 229.878906 22.402344 C 231.050781 21.816406 232.046875 20.546875 231.714844 19.414062 C 231.460938 18.515625 230.464844 18.007812 229.019531 18.417969 L 224.996094 19.570312 C 224.761719 19.628906 224.644531 19.667969 224.722656 19.882812 C 224.742188 20.019531 224.859375 19.980469 225.074219 19.921875 C 225.09375 19.921875 225.328125 19.84375 225.542969 19.824219 C 225.777344 19.785156 225.894531 19.785156 225.933594 19.941406 C 225.933594 19.980469 225.953125 20 225.953125 20.15625 L 226.167969 27.070312 Z M 227.007812 23.085938 L 226.890625 19.921875 C 226.890625 19.453125 226.890625 19.414062 227.398438 19.257812 L 228.941406 18.808594 C 230.015625 18.515625 230.484375 19.160156 230.640625 19.6875 C 230.933594 20.722656 230.230469 22.167969 228.765625 22.597656 L 227.007812 23.085938 Z M 227.613281 27.265625 C 227.457031 27.324219 227.4375 27.324219 227.359375 27.34375 C 227.222656 27.363281 227.183594 27.34375 227.164062 27.246094 C 227.144531 27.207031 227.144531 27.1875 227.125 26.972656 L 227.007812 23.359375 L 229.292969 22.714844 C 230.425781 22.382812 230.894531 23.222656 231.050781 23.75 C 231.382812 24.921875 230.660156 26.40625 229.253906 26.796875 L 227.613281 27.265625 Z M 227.613281 27.265625 "/>
<path style=" stroke:none;fill-rule:nonzero;fill:rgb(100%,0%,0%);fill-opacity:1;" d="M 237.054688 15.746094 C 237.074219 15.570312 237.054688 15.511719 237.054688 15.511719 C 237.015625 15.355469 236.859375 15.296875 236.742188 15.335938 C 236.644531 15.355469 236.585938 15.414062 236.566406 15.492188 L 235.667969 28.128906 C 235.667969 28.285156 235.667969 28.324219 235.667969 28.34375 C 235.707031 28.480469 235.84375 28.578125 235.980469 28.539062 C 236.136719 28.5 236.15625 28.382812 236.175781 28.148438 L 237.054688 15.746094 Z M 237.054688 15.746094 "/>
<path style=" stroke:none;fill-rule:nonzero;fill:rgb(100%,0%,0%);fill-opacity:1;" d="M 241.316406 22.289062 C 241.0625 23.207031 240.652344 23.5 240.144531 23.695312 C 239.988281 23.753906 239.871094 23.792969 239.929688 24.007812 C 239.949219 24.085938 240.046875 24.125 240.144531 24.085938 C 240.457031 24.007812 240.808594 23.851562 241.160156 23.753906 C 241.550781 23.65625 241.980469 23.578125 242.371094 23.460938 C 242.429688 23.441406 242.605469 23.382812 242.546875 23.148438 C 242.507812 23.03125 242.390625 23.050781 242.292969 23.089844 C 242.019531 23.128906 241.6875 23.128906 241.589844 22.835938 C 241.550781 22.679688 241.589844 22.523438 241.648438 22.328125 L 242.117188 20.53125 L 245.125 19.671875 C 245.242188 19.90625 245.886719 21.507812 245.925781 21.625 C 246.023438 21.976562 245.398438 22.191406 245.164062 22.25 C 245.007812 22.308594 244.871094 22.347656 244.929688 22.582031 C 244.96875 22.71875 245.125 22.679688 245.144531 22.660156 C 245.632812 22.523438 246.121094 22.347656 246.609375 22.191406 C 246.921875 22.113281 247.683594 21.9375 247.996094 21.859375 C 248.074219 21.839844 248.210938 21.78125 248.132812 21.546875 C 248.113281 21.410156 247.996094 21.449219 247.839844 21.488281 C 247.078125 21.703125 247.039062 21.625 246.902344 21.292969 L 244.070312 13.988281 C 243.953125 13.773438 243.933594 13.714844 243.71875 13.773438 C 243.542969 13.832031 243.542969 13.910156 243.484375 14.046875 L 241.316406 22.289062 Z M 242.253906 20.101562 L 243.484375 15.472656 L 244.988281 19.300781 L 242.253906 20.101562 Z M 242.253906 20.101562 "/>
<path style=" stroke:none;fill-rule:nonzero;fill:rgb(100%,0%,0%);fill-opacity:1;" d="M 251.167969 17.6875 C 250.894531 16.75 250.347656 15.34375 249.292969 14.191406 C 248.160156 12.902344 246.890625 12.433594 246.773438 12.453125 C 246.695312 12.472656 246.675781 12.53125 246.695312 12.609375 C 246.714844 12.648438 246.714844 12.667969 247.007812 12.84375 C 248.511719 13.683594 249.761719 15.382812 250.464844 17.882812 C 251.050781 19.953125 251.207031 22.199219 250.152344 24.132812 C 250.035156 24.308594 250.035156 24.328125 250.054688 24.367188 C 250.074219 24.445312 250.132812 24.484375 250.210938 24.464844 C 250.328125 24.445312 251.1875 23.3125 251.441406 21.574219 C 251.675781 20.070312 251.460938 18.703125 251.167969 17.6875 Z M 251.167969 17.6875 "/>
<path style=" stroke:none;fill-rule:nonzero;fill:rgb(100%,0%,0%);fill-opacity:1;" d="M 81.679688 81.09375 C 81.71875 81.074219 81.972656 80.957031 81.972656 80.957031 L 82.363281 80.761719 C 84.628906 79.628906 84.921875 78.164062 84.394531 77.109375 C 83.59375 75.507812 81.894531 75.703125 80.46875 76.425781 L 77.207031 78.066406 C 76.992188 78.164062 76.816406 78.261719 76.914062 78.457031 C 77.011719 78.652344 77.226562 78.535156 77.324219 78.476562 C 77.910156 78.203125 77.96875 78.261719 78.242188 78.808594 L 81.054688 84.414062 C 81.308594 84.960938 81.347656 85.078125 80.761719 85.351562 C 80.664062 85.410156 80.449219 85.527344 80.546875 85.703125 C 80.644531 85.917969 80.820312 85.820312 81.035156 85.722656 L 84.023438 84.21875 C 84.21875 84.121094 84.394531 84.023438 84.296875 83.808594 C 84.199219 83.632812 84.003906 83.730469 83.886719 83.789062 C 83.242188 84.121094 83.144531 84.042969 82.890625 83.496094 L 81.679688 81.09375 Z M 83.261719 79.667969 C 83.398438 79.023438 83.085938 78.300781 82.851562 77.851562 C 82.558594 77.246094 82.1875 76.679688 81.71875 76.425781 C 82.382812 76.25 83.4375 76.152344 84.003906 77.304688 C 84.394531 78.085938 84.160156 78.886719 83.261719 79.667969 Z M 80.078125 77.871094 C 79.960938 77.65625 79.765625 77.265625 80.429688 76.933594 C 81.230469 76.523438 81.757812 76.640625 82.441406 78.046875 C 83.242188 79.648438 82.734375 80.058594 82.050781 80.410156 L 81.484375 80.683594 L 80.078125 77.871094 Z M 81.679688 84.902344 C 81.679688 84.667969 81.542969 84.394531 81.464844 84.238281 L 78.652344 78.59375 C 78.574219 78.457031 78.4375 78.203125 78.242188 78.027344 L 79.53125 77.382812 C 79.453125 77.636719 79.570312 77.851562 79.667969 78.027344 L 82.5 83.710938 C 82.558594 83.828125 82.714844 84.140625 82.890625 84.296875 L 81.679688 84.902344 Z M 81.679688 84.902344 "/>
<path style=" stroke:none;fill-rule:nonzero;fill:rgb(100%,0%,0%);fill-opacity:1;" d="M 92.363281 83.421875 C 92.34375 83.382812 92.324219 83.34375 92.050781 83.265625 C 89.921875 82.5625 88.496094 80.628906 87.636719 78.910156 C 86.679688 76.976562 86.152344 74.789062 86.816406 72.71875 C 86.914062 72.523438 86.894531 72.484375 86.875 72.445312 C 86.835938 72.367188 86.757812 72.386719 86.679688 72.40625 C 86.582031 72.464844 85.957031 73.734375 86.015625 75.453125 C 86.074219 76.976562 86.523438 78.304688 86.992188 79.242188 C 87.441406 80.121094 88.242188 81.390625 89.511719 82.367188 C 90.859375 83.402344 92.1875 83.636719 92.285156 83.578125 C 92.363281 83.558594 92.402344 83.480469 92.363281 83.421875 Z M 92.363281 83.421875 "/>
<path style=" stroke:none;fill-rule:nonzero;fill:rgb(100%,0%,0%);fill-opacity:1;" d="M 93.019531 78.121094 C 92.941406 79.078125 92.570312 79.449219 92.101562 79.742188 C 91.984375 79.820312 91.886719 79.878906 91.984375 80.09375 C 92.023438 80.152344 92.101562 80.171875 92.199219 80.132812 C 92.492188 79.996094 92.824219 79.78125 93.136719 79.625 C 93.507812 79.429688 93.898438 79.273438 94.269531 79.097656 C 94.347656 79.058594 94.484375 79 94.386719 78.785156 C 94.328125 78.667969 94.210938 78.6875 94.132812 78.726562 C 93.878906 78.84375 93.546875 78.882812 93.410156 78.589844 C 93.351562 78.453125 93.351562 78.316406 93.351562 78.101562 L 93.488281 76.265625 L 96.300781 74.859375 C 96.4375 75.09375 97.355469 76.519531 97.414062 76.617188 C 97.570312 76.949219 97.023438 77.28125 96.789062 77.398438 C 96.632812 77.476562 96.515625 77.535156 96.632812 77.769531 C 96.691406 77.886719 96.828125 77.828125 96.867188 77.808594 C 97.316406 77.574219 97.765625 77.300781 98.234375 77.066406 C 98.507812 76.929688 99.230469 76.617188 99.523438 76.480469 C 99.582031 76.441406 99.699219 76.382812 99.582031 76.148438 C 99.523438 76.03125 99.425781 76.089844 99.289062 76.148438 C 98.585938 76.5 98.546875 76.441406 98.351562 76.128906 L 94.171875 69.46875 C 94.035156 69.253906 94.015625 69.214844 93.839844 69.3125 C 93.664062 69.390625 93.644531 69.507812 93.625 69.644531 L 93.019531 78.121094 Z M 93.527344 75.816406 L 93.898438 71.011719 L 96.085938 74.527344 L 93.527344 75.816406 Z M 93.527344 75.816406 "/>
<path style=" stroke:none;fill-rule:nonzero;fill:rgb(100%,0%,0%);fill-opacity:1;" d="M 101.855469 71.800781 C 101.425781 70.921875 100.644531 69.632812 99.394531 68.675781 C 98.027344 67.640625 96.699219 67.40625 96.582031 67.464844 C 96.523438 67.503906 96.503906 67.5625 96.523438 67.621094 C 96.542969 67.660156 96.5625 67.699219 96.894531 67.757812 C 98.515625 68.324219 100.058594 69.789062 101.210938 72.132812 C 102.167969 74.027344 102.753906 76.214844 102.070312 78.324219 C 101.972656 78.519531 101.992188 78.558594 102.011719 78.597656 C 102.03125 78.636719 102.128906 78.675781 102.1875 78.636719 C 102.304688 78.578125 102.929688 77.308594 102.890625 75.550781 C 102.8125 74.066406 102.34375 72.738281 101.855469 71.800781 Z M 101.855469 71.800781 "/>
</g>
</svg>
